{"title":"Reality.2012.DVDRip.AC3.XviD.HORiZON-ArtSubs","uid":8103192,"size":1674989568,"categoryP":"video","categoryS":"movies","magnet":"?xt=urn:btih:543e20de19d2df812682c9debbcf62b2e4f931c9&amp;dn=Reality.2012.DVDRip.AC3.XviD.HORiZON-ArtSubs&amp;tr=udp%3A%2F%2Ftracker.openbittorrent.com%3A80&amp;tr=udp%3A%2F%2Fopen.demonii.com%3A1337&amp;tr=udp%3A%2F%2Ftracker.coppersurfer.tk%3A6969&amp;tr=udp%3A%2F%2Fexodus.desync.com%3A6969","seeders":13,"leechers":0,"uploader":"lletaif","files":1,"time":1360021296,"description":"Title: \nReality\n\nCountry: \nItaly/2012\n\nLanguage: \nItalian\n\nNo subtitle\n\nDirector:\nMatteo Garrone\n\nWriters:\nMatteo Garrone (story), Massimo Gaudioso (story)\n\nStars:\nAniello Arena, Loredana Simioli, Nando Paone\n\nSumary:\nLuciano is a Neapolitan fishmonger who supplements his modest income by pulling off little scams together with his wife Maria. A likeable, entertaining guy, Luciano never misses an opportunity to perform for his customers and countless relatives. One day his family urge him to try out for Big Brother. In chasing this dream his perception of reality begins to change. \n\nTrivia:\nWon Grand Prize of the Jury, in Cannes Film Festival 2012\n\nImdb: &lt;a href=&quot;\nhttp://www.imdb.com/title/tt1846487/&quot; rel=&quot;nofollow&quot; target=&quot;_NEW&quot;&gt;\nhttp://www.imdb.com/title/tt1846487/&lt;/a&gt;\n\nTrailer: &lt;a href=&quot;\nhttp://www.bandes-annonces.fr/film-2012/bande-annonce-reality.html&quot; rel=&quot;nofollow&quot; target=&quot;_NEW&quot;&gt;\nhttp://www.bandes-annonces.fr/film-2012/bande-annonce-reality.html&lt;/a&gt;\n\n\nMedia Info:\n\nGeneral\nComplete name                            : Reality.2012.DVDRip.AC3.XviD.HORiZON-ArtSubs\nFormat                                   : AVI\nFormat/Info                              : Audio Video Interleave\nFile size                                : 1.56 GiB\nDuration                                 : 1h 51mn\nOverall bit rate                         : 2 002 Kbps\nWriting application                      : FairUse Wizard - http://fairusewizard.com\nWriting library                          : The best and REALLY easy backup tool\n\nVideo\nID                                       : 0\nFormat                                   : MPEG-4 Visual\nFormat profile                           : Advanced Simple@L5\nFormat settings, BVOP                    : 1\nFormat settings, QPel                    : No\nFormat settings, GMC                     : No warppoints\nFormat settings, Matrix                  : Default (MPEG)\nMuxing mode                              : Packed bitstream\nCodec ID                                 : XVID\nCodec ID/Hint                            : XviD\nDuration                                 : 1h 51mn\nBit rate                                 : 1 608 Kbps\nWidth                                    : 704 pixels\nHeight                                   : 296 pixels\nDisplay aspect ratio                     : 2.40:1\nFrame rate                               : 25.000 fps\nColor space                              : YUV\nChroma subsampling                       : 4:2:0\nBit depth                                : 8 bits\nScan type                                : Progressive\nCompression mode                         : Lossy\nBits/(Pixel*Frame)                       : 0.309\nStream size                              : 1.25 GiB (80%)\nWriting library                          : XviD 1.2.1 (UTC 2008-12-04)\n\nAudio\nID                                       : 1\nFormat                                   : AC-3\nFormat/Info                              : Audio Coding 3\nMode extension                           : CM (complete main)\nFormat settings, Endianness              : Big\nCodec ID                                 : 2000\nDuration                                 : 1h 51mn\nBit rate mode                            : Constant\nBit rate                                 : 384 Kbps\nChannel(s)                               : 6 channels\nChannel positions                        : Front: L C R, Side: L R, LFE\nSampling rate                            : 48.0 KHz\nBit depth                                : 16 bits\nCompression mode                         : Lossy\nStream size                              : 306 MiB (19%)\nAlignment                                : Split accross interleaves\nInterleave, duration                     : 40 ms (1.00 video frame)\nInterleave, preload duration             : 500 ms\n\n","torrent":{"xt":"urn:btih:543e20de19d2df812682c9debbcf62b2e4f931c9","amp;dn":"Reality.2012.DVDRip.AC3.XviD.HORiZON-ArtSubs","amp;tr":["udp%3A%2F%2Ftracker.openbittorrent.com%3A80","udp%3A%2F%2Fopen.demonii.com%3A1337","udp%3A%2F%2Ftracker.coppersurfer.tk%3A6969","udp%3A%2F%2Fexodus.desync.com%3A6969"],"infoHash":"543e20de19d2df812682c9debbcf62b2e4f931c9","infoHashBuffer":{"type":"Buffer","data":[84,62,32,222,25,210,223,129,38,130,201,222,187,207,98,178,228,249,49,201]},"announce":[],"urlList":[]}}